<svg xmlns="http://www.w3.org/2000/svg" xmlns:xlink="http://www.w3.org/1999/xlink" width="500" zoomAndPan="magnify" viewBox="0 0 375 374.999991" height="500" preserveAspectRatio="xMidYMid meet" version="1.0"><defs><g/><clipPath id="3fc91ae23a"><path d="M 102 144.578125 L 160.234375 144.578125 L 160.234375 230.078125 L 102 230.078125 Z M 102 144.578125 " clip-rule="nonzero"/></clipPath></defs><rect x="-37.5" width="450" fill="#ffffff" y="-37.499999" height="449.999989" fill-opacity="1"/><rect x="-37.5" width="450" fill="#191919" y="-37.499999" height="449.999989" fill-opacity="1"/><path stroke-linecap="round" transform="matrix(0, 0.75, -0.75, 0, 174.320208, 144.581167)" fill="none" stroke-linejoin="miter" d="M 0.501152 0.499861 L 120.105326 0.499861 " stroke="#ffffff" stroke-width="1" stroke-opacity="1" stroke-miterlimit="4"/><g clip-path="url(#3fc91ae23a)"><path fill="#ffffff" d="M 109.074219 200.191406 L 106.144531 196.464844 C 98.738281 187.046875 101.894531 173.199219 112.648438 167.917969 L 160.070312 144.621094 L 160.070312 154.210938 C 160.070312 161.542969 155.882812 168.238281 149.289062 171.453125 L 117.761719 186.816406 C 115.46875 187.933594 113.457031 189.570312 111.9375 191.625 C 110.417969 193.6875 109.105469 196.515625 109.207031 200.082031 C 110.246094 199.257812 111.398438 198.527344 112.648438 197.914062 L 160.070312 174.617188 L 160.070312 184.207031 C 160.070312 191.539062 155.878906 198.234375 149.285156 201.449219 L 117.761719 216.808594 C 115.46875 217.925781 113.457031 219.566406 111.9375 221.617188 C 110.375 223.738281 109.035156 226.664062 109.21875 230.371094 L 106.144531 226.460938 C 99.636719 218.183594 101.28125 206.488281 109.074219 200.191406 Z M 139.875 219.867188 L 160.054688 230.382812 L 160.046875 204.117188 L 139.914062 214.25 C 137.617188 215.410156 137.597656 218.679688 139.875 219.867188 Z M 139.875 219.867188 " fill-opacity="1" fill-rule="nonzero"/></g><g fill="#ffffff" fill-opacity="1"><g transform="translate(187.499992, 193.981041)"><g><path d="M 30.515625 -25 L 30.515625 0 L 24.421875 0 L 24.421875 -14.984375 L 18.84375 0 L 13.921875 0 L 8.296875 -15.03125 L 8.296875 0 L 2.203125 0 L 2.203125 -25 L 9.40625 -25 L 16.421875 -7.6875 L 23.359375 -25 Z M 30.515625 -25 "/></g></g></g><g fill="#ffffff" fill-opacity="1"><g transform="translate(220.182165, 193.981041)"><g><path d="M 30.515625 -25 L 30.515625 0 L 24.421875 0 L 24.421875 -14.984375 L 18.84375 0 L 13.921875 0 L 8.296875 -15.03125 L 8.296875 0 L 2.203125 0 L 2.203125 -25 L 9.40625 -25 L 16.421875 -7.6875 L 23.359375 -25 Z M 30.515625 -25 "/></g></g></g><g fill="#ffffff" fill-opacity="1"><g transform="translate(252.864337, 193.981041)"><g><path d="M 14.953125 0 L 9.75 -9.4375 L 8.296875 -9.4375 L 8.296875 0 L 2.203125 0 L 2.203125 -25 L 12.421875 -25 C 14.398438 -25 16.082031 -24.65625 17.46875 -23.96875 C 18.851562 -23.28125 19.890625 -22.335938 20.578125 -21.140625 C 21.265625 -19.941406 21.609375 -18.601562 21.609375 -17.125 C 21.609375 -15.46875 21.140625 -13.984375 20.203125 -12.671875 C 19.265625 -11.367188 17.882812 -10.445312 16.0625 -9.90625 L 21.828125 0 Z M 8.296875 -13.75 L 12.078125 -13.75 C 13.191406 -13.75 14.023438 -14.019531 14.578125 -14.5625 C 15.140625 -15.113281 15.421875 -15.882812 15.421875 -16.875 C 15.421875 -17.820312 15.140625 -18.566406 14.578125 -19.109375 C 14.023438 -19.660156 13.191406 -19.9375 12.078125 -19.9375 L 8.296875 -19.9375 Z M 8.296875 -13.75 "/></g></g></g></svg>